<?xml version="1.0" encoding="utf-8"?>
<!-- Generator: Adobe Illustrator 28.3.0, SVG Export Plug-In . SVG Version: 6.00 Build 0)  -->
<svg version="1.1" id="Capa_1" xmlns="http://www.w3.org/2000/svg" xmlns:xlink="http://www.w3.org/1999/xlink" x="0px" y="0px"
	 viewBox="0 0 50 50" style="enable-background:new 0 0 50 50;" xml:space="preserve">
<style type="text/css">
	.st0{fill:#DEC195;}
</style>
<g>
	<g>
		<g>
			<path class="st0" d="M45.8,39.8l-7.5-7.5l0,0l0,0l-2.7-2.7c-0.9-0.9-2.4-0.9-3.3,0l-0.3,0.3l-1.1-1.1c2.2-2.7,3.6-6.1,3.6-9.9
				c0-8.5-6.9-15.4-15.4-15.4S3.5,10.4,3.5,18.9s6.9,15.4,15.4,15.4c3.8,0,7.2-1.3,9.9-3.6l1.1,1.1l-0.3,0.3c-0.9,0.9-0.9,2.4,0,3.3
				l10.2,10.2c0.9,0.9,2.4,0.9,3.3,0l2.6-2.6C46.7,42.2,46.7,40.8,45.8,39.8z M18.9,31.5c-7,0-12.6-5.7-12.6-12.6S12,6.3,18.9,6.3
				S31.5,12,31.5,18.9S25.9,31.5,18.9,31.5z M31.9,33.9l2-2l1.4,1.4l-2,2L31.9,33.9z M41.5,43.5l-6.2-6.2l2-2l6.2,6.2L41.5,43.5z"/>
		</g>
	</g>
	<g>
		<g>
			<path class="st0" d="M18.9,9.1c-0.8,0-1.4,0.6-1.4,1.4s0.6,1.4,1.4,1.4c3.9,0,7,3.1,7,7c0,0.8,0.6,1.4,1.4,1.4s1.4-0.6,1.4-1.4
				C28.8,13.5,24.4,9.1,18.9,9.1z"/>
		</g>
	</g>
</g>
</svg>
