<?xml version="1.0" encoding="utf-8"?>
<!-- Generator: Adobe Illustrator 28.3.0, SVG Export Plug-In . SVG Version: 6.00 Build 0)  -->
<svg version="1.1" id="Capa_1" xmlns="http://www.w3.org/2000/svg" xmlns:xlink="http://www.w3.org/1999/xlink" x="0px" y="0px"
	 viewBox="0 0 50 50" style="enable-background:new 0 0 50 50;" xml:space="preserve">
<style type="text/css">
	.st0{fill:#DEC195;}
</style>
<g>
	<g>
		<g>
			<g>
				<path class="st0" d="M34.5,26.4c-1-0.2-1.8-0.8-2.3-1.7c-0.4-0.8-0.5-1.8-0.3-2.6l-5.3-1.1c-0.5-0.1-0.8-0.5-0.6-1l1.2-5.6
					c0-0.2,0.2-0.5,0.4-0.6c0.2-0.1,0.5-0.1,0.7,0l0,0c0.5,0.2,1,0.2,1.5-0.1s0.8-0.7,0.9-1.2c0.1-0.5,0-1-0.3-1.4s-0.8-0.6-1.3-0.7
					h0c-0.2,0-0.5-0.1-0.6-0.3c-0.2-0.2-0.2-0.4-0.2-0.7l1.3-6.1c0.1-0.5,0.5-0.8,1-0.7l13.7,2.9c2.1,0.4,3.4,2.5,3,4.6l-2.9,13.8
					c-0.1,0.5-0.5,0.8-1,0.6l-4.7-1c-0.1,0.9-0.6,1.7-1.3,2.3C36.6,26.4,35.6,26.6,34.5,26.4C34.6,26.4,34.6,26.4,34.5,26.4
					L34.5,26.4z M27.9,19.4l5.4,1.1c0.2,0,0.5,0.2,0.6,0.4c0.1,0.2,0.1,0.5,0,0.7l-0.2,0.6c-0.2,0.5-0.2,1.1,0.1,1.5
					c0.2,0.5,0.7,0.8,1.2,0.9c0.5,0.1,1,0,1.4-0.4c0.4-0.3,0.6-0.8,0.7-1.3l0-0.7c0-0.2,0.1-0.5,0.3-0.6c0.2-0.2,0.5-0.2,0.7-0.2
					l4.9,1l2.8-12.9c0.2-1.2-0.5-2.3-1.7-2.6L31.1,4.4l-0.9,4.4c0.6,0.2,1.2,0.6,1.7,1.1c0.6,0.8,0.9,1.8,0.7,2.8s-0.9,1.9-1.8,2.3
					c-0.6,0.3-1.3,0.4-2,0.4L27.9,19.4z"/>
			</g>
		</g>
	</g>
	<g>
		<g>
			<path class="st0" d="M37.6,33.5c0.5,0,0.8-0.4,0.8-0.8v-3.1c0-0.5-0.4-0.9-0.8-0.9h-5.8c-0.2,0-0.5,0.1-0.6,0.3
				c-0.2,0.2-0.2,0.5-0.2,0.7l0.1,0.7c0.1,0.5,0,1-0.4,1.4s-0.8,0.6-1.3,0.6c-0.5,0-1-0.2-1.3-0.6c-0.4-0.4-0.5-1-0.4-1.5l0.1-0.6
				c0-0.2,0-0.5-0.2-0.7c-0.2-0.2-0.4-0.3-0.6-0.3h-5.6v-4c0.7-0.1,1.3-0.3,1.9-0.8c0.8-0.7,1.2-1.6,1.2-2.6c0-1-0.5-2-1.2-2.6
				c-0.5-0.5-1.2-0.7-1.9-0.8v-5.4c0-0.5-0.4-0.9-0.9-0.9H6.4c-2.1,0-3.8,1.7-3.8,3.8v28.1c0,2.1,1.7,3.8,3.8,3.8h28.1
				c2.1,0,3.8-1.7,3.8-3.8v-2.5c0-0.5-0.4-0.8-0.8-0.8c-0.5,0-0.8,0.4-0.8,0.8v2.5c0,1.2-1,2.2-2.2,2.2H21.4v-5.5
				c0-0.2-0.1-0.5-0.3-0.7c-0.2-0.2-0.5-0.2-0.7-0.2l0,0c-0.5,0.1-1,0-1.4-0.4c-0.4-0.3-0.6-0.8-0.6-1.3s0.2-1,0.6-1.3
				s0.9-0.5,1.4-0.4l0,0c0.2,0,0.5,0,0.7-0.2c0.2-0.2,0.3-0.4,0.3-0.7v-4.8h4.6c-0.1,0.9,0.2,1.8,0.8,2.5c0.7,0.8,1.6,1.2,2.6,1.2
				c1,0,2-0.5,2.6-1.3c0.6-0.7,0.9-1.6,0.8-2.5h4v2.2C36.7,33.1,37.1,33.5,37.6,33.5L37.6,33.5z M4.3,15.5c0-1.2,1-2.1,2.2-2.1h13.2
				v5.4c0,0.2,0.1,0.5,0.3,0.6c0.2,0.2,0.5,0.2,0.7,0.2l0,0l0,0c0.5-0.1,1,0,1.4,0.4c0.4,0.3,0.6,0.8,0.6,1.3s-0.2,1-0.6,1.3
				s-0.9,0.5-1.4,0.4l0,0c-0.2,0-0.5,0-0.7,0.2s-0.3,0.4-0.3,0.6v4.9H16c-0.4-1.4-1.7-2.5-3.3-2.5s-2.9,1-3.3,2.5H4.3V15.5z
				 M17.8,35.1c-0.8,0.7-1.2,1.6-1.2,2.6s0.5,2,1.2,2.6c0.5,0.5,1.2,0.7,1.9,0.8v4.6H6.4c-1.2,0-2.2-1-2.2-2.2V30.4h5.8
				c0.4,0,0.8-0.4,0.9-0.8c0-0.9,0.8-1.7,1.7-1.7c0.9,0,1.7,0.7,1.7,1.7c0,0.5,0.4,0.8,0.9,0.8h4.3v3.9C19,34.4,18.3,34.7,17.8,35.1
				L17.8,35.1z"/>
		</g>
		<g>
			<g>
				<g>
					<path class="st0" d="M37.6,37.7c-0.4,0-0.7-0.2-0.8-0.6s0-0.7,0.2-0.9c0.3-0.2,0.7-0.3,1-0.1c0.3,0.2,0.5,0.5,0.4,0.9
						C38.3,37.4,38,37.7,37.6,37.7L37.6,37.7z"/>
				</g>
			</g>
		</g>
	</g>
</g>
</svg>
