<?xml version="1.0" encoding="utf-8"?>
<!-- Generator: Adobe Illustrator 28.3.0, SVG Export Plug-In . SVG Version: 6.00 Build 0)  -->
<svg version="1.1" id="Capa_1" xmlns="http://www.w3.org/2000/svg" xmlns:xlink="http://www.w3.org/1999/xlink" x="0px" y="0px"
	 viewBox="0 0 50 50" style="enable-background:new 0 0 50 50;" xml:space="preserve">
<style type="text/css">
	.st0{fill:#DEC195;}
</style>
<g>
	<path class="st0" d="M39,4.7h-5.4V2.8c0-0.5-0.4-0.9-0.9-0.9H17.3c-0.5,0-0.9,0.4-0.9,0.9v1.8H11c-2,0-3.6,1.6-3.6,3.6v36.2
		c0,2,1.6,3.6,3.6,3.6h28c2,0,3.6-1.6,3.6-3.6V8.3C42.6,6.3,41,4.7,39,4.7z M18.2,3.7h13.6v3.6H18.2V3.7z M17.3,9.2h15.4
		c0.5,0,0.9-0.4,0.9-0.9V6.4h3.6v36.2H12.8V6.4h3.6v1.8C16.4,8.8,16.8,9.2,17.3,9.2L17.3,9.2z M40.8,44.5c0,1-0.8,1.8-1.8,1.8H11
		c-1,0-1.8-0.8-1.8-1.8V8.3c0-1,0.8-1.8,1.8-1.8l0,0v37.1c0,0.5,0.4,0.9,0.9,0.9h26.2c0.5,0,0.9-0.4,0.9-0.9V6.4l0,0
		c1,0,1.8,0.8,1.8,1.8L40.8,44.5z"/>
	<path class="st0" d="M14.9,15.9c-0.4,0.4-0.4,0.9,0,1.3l1.3,1.3c0.4,0.4,1,0.4,1.3,0l3.2-3.6c0.3-0.4,0.3-0.9-0.1-1.3
		c-0.4-0.3-0.9-0.3-1.3,0.1l-2.6,2.9l-0.6-0.6C15.8,15.5,15.2,15.5,14.9,15.9L14.9,15.9z"/>
	<path class="st0" d="M23.6,15h10.9c0.5,0,0.9-0.4,0.9-0.9s-0.4-0.9-0.9-0.9H23.6c-0.5,0-0.9,0.4-0.9,0.9S23.1,15,23.6,15z"/>
	<path class="st0" d="M23.6,18.7h10.9c0.5,0,0.9-0.4,0.9-0.9s-0.4-0.9-0.9-0.9H23.6c-0.5,0-0.9,0.4-0.9,0.9S23.1,18.7,23.6,18.7z"/>
	<path class="st0" d="M20.6,23.4c-0.4-0.3-0.9-0.3-1.3,0.1l-2.6,2.9l-0.6-0.6c-0.4-0.4-0.9-0.4-1.3,0s-0.4,0.9,0,1.3l1.3,1.3
		c0.4,0.4,1,0.4,1.3,0l3.2-3.6C21,24.3,21,23.8,20.6,23.4L20.6,23.4z"/>
	<path class="st0" d="M23.6,25h10.9c0.5,0,0.9-0.4,0.9-0.9s-0.4-0.9-0.9-0.9H23.6c-0.5,0-0.9,0.4-0.9,0.9C22.7,24.6,23.1,25,23.6,25
		z"/>
	<path class="st0" d="M23.6,28.6h10.9c0.5,0,0.9-0.4,0.9-0.9s-0.4-0.9-0.9-0.9H23.6c-0.5,0-0.9,0.4-0.9,0.9
		C22.7,28.2,23.1,28.6,23.6,28.6z"/>
	<path class="st0" d="M20.6,33.4c-0.4-0.3-0.9-0.3-1.3,0.1l-2.6,2.9l-0.6-0.6c-0.4-0.3-0.9-0.3-1.3,0s-0.4,0.9,0,1.3l1.3,1.3
		c0.4,0.4,1,0.3,1.3,0l3.2-3.6C21,34.3,21,33.7,20.6,33.4z"/>
	<path class="st0" d="M23.6,35h10.9c0.5,0,0.9-0.4,0.9-0.9s-0.4-0.9-0.9-0.9H23.6c-0.5,0-0.9,0.4-0.9,0.9S23.1,35,23.6,35z"/>
	<path class="st0" d="M23.6,38.6h10.9c0.5,0,0.9-0.4,0.9-0.9s-0.4-0.9-0.9-0.9H23.6c-0.5,0-0.9,0.4-0.9,0.9
		C22.7,38.2,23.1,38.6,23.6,38.6z"/>
</g>
</svg>
