<?xml version="1.0" encoding="utf-8"?>
<!-- Generator: Adobe Illustrator 28.3.0, SVG Export Plug-In . SVG Version: 6.00 Build 0)  -->
<svg version="1.1" id="Capa_1" xmlns="http://www.w3.org/2000/svg" xmlns:xlink="http://www.w3.org/1999/xlink" x="0px" y="0px"
	 viewBox="0 0 50 50" style="enable-background:new 0 0 50 50;" xml:space="preserve">
<style type="text/css">
	.st0{fill:#DEC195;}
</style>
<g>
	<path class="st0" d="M48.3,3.7c-0.2-0.2-0.5-0.3-0.8-0.3L29.1,4c-4.6,0.2-8.9,2-12.1,5.3l-0.5,0.5c-3.4,3.4-5.3,8-5.3,12.8
		c0,4.4,1.6,8.6,4.5,11.9L14,36.2c-3.2,3.2-3.2,8.5,0,11.7c0.2,0.2,0.5,0.3,0.8,0.3s0.6-0.1,0.8-0.3c0.2-0.2,0.3-0.5,0.3-0.8
		s-0.1-0.6-0.3-0.8c-2.4-2.4-2.4-6.2,0-8.5l1.6-1.6c3.3,3,7.6,4.6,12.1,4.6c4.8,0,9.4-1.9,12.8-5.3l0.5-0.5
		c3.2-3.2,5.1-7.6,5.3-12.1l0.7-18.4C48.6,4.2,48.5,3.9,48.3,3.7z M23.6,29.8l7.1,0.8l0.1,0c0.6,0,1-0.4,1.1-1c0-0.3,0-0.6-0.2-0.8
		s-0.5-0.4-0.8-0.4l-5.3-0.6l4.9-4.9l7.1,0.8l0.1,0c0.6,0,1-0.4,1.1-1c0-0.3,0-0.6-0.2-0.8c-0.2-0.2-0.5-0.4-0.8-0.4l-5.3-0.6
		l5.1-5.1c0.4-0.4,0.4-1.1,0-1.6c-0.4-0.4-1.2-0.4-1.6,0l-8.3,8.3l-0.6-5.2c-0.1-0.6-0.6-1-1.2-1c-0.3,0-0.6,0.2-0.8,0.4
		c-0.2,0.2-0.3,0.5-0.2,0.8l0.8,7L17.2,33c-2.5-2.9-3.8-6.5-3.8-10.3c0-4.2,1.6-8.2,4.7-11.2l0.5-0.5c2.8-2.8,6.6-4.5,10.6-4.6
		l17.1-0.6l-0.7,17.1c-0.2,4-1.8,7.8-4.6,10.6l-0.5,0.5c-6,6-15.5,6.2-21.7,0.7L23.6,29.8z"/>
	<path class="st0" d="M15.1,9.4L15.5,9l-0.5-0.2l-0.2-0.1c-0.6-0.1-1.2,0.4-1.2,1l-0.2,1.5L9.9,7.8c-0.4-0.4-1.2-0.4-1.6,0
		C8.1,8,7.9,8.3,7.9,8.6s0.1,0.6,0.3,0.8l1.8,1.8l-1.6,0.2c-0.3,0-0.6,0.2-0.8,0.4c-0.2,0.2-0.3,0.5-0.2,0.8c0.1,0.6,0.5,1,1.1,1
		l3.8-0.4l0.1-0.2c0.3-0.5,0.6-1,0.9-1.4l0.2-0.3l0,0l0.7-0.8C14.4,10.2,14.8,9.8,15.1,9.4z"/>
	<path class="st0" d="M7.6,17.9l-0.3-0.3c-1.4-1.4-2.2-3.2-2.2-5.1L4.7,4.3l8.2,0.3c1.8,0.1,3.5,0.8,4.8,1.9L18,6.8l0.2-0.2
		C18.6,6.3,19,6,19.4,5.8l0.4-0.2l-0.3-0.3c-1.8-1.7-4.1-2.7-6.5-2.8L3.6,2C3.3,2,3,2.1,2.8,2.4C2.6,2.6,2.4,2.9,2.5,3.2l0.4,9.4
		c0.1,2.5,1.1,4.8,2.9,6.6L6,19.5c1,1,2.2,1.7,3.5,2.2l0.5,0.2l0-0.5c0-0.5,0.1-1,0.2-1.5l0-0.3l-0.3-0.1C9,19.1,8.2,18.6,7.6,17.9z
		"/>
</g>
</svg>
