<?xml version="1.0" encoding="utf-8"?>
<!-- Generator: Adobe Illustrator 28.3.0, SVG Export Plug-In . SVG Version: 6.00 Build 0)  -->
<svg version="1.1" id="Capa_1" xmlns="http://www.w3.org/2000/svg" xmlns:xlink="http://www.w3.org/1999/xlink" x="0px" y="0px"
	 viewBox="0 0 50 50" style="enable-background:new 0 0 50 50;" xml:space="preserve">
<style type="text/css">
	.st0{fill:#464646;}
	
		.st1{fill-rule:evenodd;clip-rule:evenodd;fill:none;stroke:#FF0000;stroke-width:1.5;stroke-linecap:round;stroke-linejoin:round;stroke-miterlimit:10;}
</style>
<g>
	<path class="st0" d="M48.27,3.66c-0.24-0.24-0.55-0.35-0.84-0.33L29.09,4.03c-4.58,0.17-8.9,2.05-12.14,5.3l-0.52,0.52
		c-3.43,3.43-5.31,7.98-5.31,12.83c0,4.43,1.59,8.61,4.49,11.92l-1.65,1.65c-3.23,3.23-3.23,8.49,0,11.73
		c0.21,0.21,0.5,0.33,0.8,0.33s0.58-0.12,0.8-0.33c0.21-0.21,0.33-0.5,0.33-0.8s-0.12-0.58-0.33-0.8c-2.36-2.36-2.36-6.19,0-8.54
		l1.64-1.64c3.32,2.97,7.56,4.62,12.07,4.62c4.85,0,9.41-1.88,12.83-5.3l0.52-0.52c3.24-3.25,5.13-7.56,5.3-12.14L48.6,4.5
		C48.61,4.19,48.49,3.89,48.27,3.66z M23.57,29.8l7.1,0.8l0.12,0.01c0.57,0,1.05-0.43,1.12-1c0.03-0.3-0.05-0.59-0.24-0.83
		c-0.19-0.24-0.46-0.38-0.75-0.42l-5.31-0.6l4.85-4.85l7.1,0.8l0.12,0.01c0.57,0,1.05-0.43,1.12-1c0.03-0.3-0.05-0.59-0.24-0.83
		c-0.19-0.24-0.46-0.38-0.75-0.42l-5.31-0.6l5.06-5.06c0.44-0.44,0.44-1.15,0-1.59c-0.44-0.44-1.15-0.44-1.59,0l-8.33,8.33
		l-0.58-5.18c-0.07-0.61-0.62-1.04-1.24-0.99c-0.3,0.03-0.57,0.18-0.75,0.42c-0.19,0.23-0.27,0.53-0.24,0.83l0.78,6.96l-8.4,8.4
		c-2.47-2.88-3.83-6.49-3.83-10.32c0-4.24,1.65-8.23,4.66-11.24l0.52-0.52c2.84-2.84,6.62-4.49,10.63-4.64L46.3,5.63l-0.65,17.13
		c-0.15,4.02-1.8,7.79-4.64,10.64l-0.52,0.52c-5.95,5.95-15.48,6.17-21.71,0.69L23.57,29.8z"/>
	<path class="st0" d="M15.13,9.43l0.33-0.42l-0.51-0.21l-0.18-0.05c-0.62-0.06-1.17,0.38-1.24,0.99l-0.17,1.53L9.88,7.81
		c-0.43-0.42-1.17-0.42-1.59,0C8.07,8.02,7.95,8.3,7.95,8.6s0.12,0.58,0.33,0.8l1.79,1.79l-1.6,0.18c-0.3,0.03-0.57,0.18-0.75,0.42
		c-0.19,0.23-0.27,0.53-0.24,0.83c0.06,0.57,0.54,1,1.12,1l3.75-0.42l0.09-0.17c0.3-0.51,0.58-0.96,0.86-1.36l0.18-0.26l-0.02-0.02
		l0.67-0.83C14.44,10.17,14.78,9.8,15.13,9.43z"/>
	<path class="st0" d="M7.55,17.92l-0.27-0.27c-1.36-1.36-2.15-3.17-2.23-5.1L4.74,4.34l8.21,0.31c1.76,0.07,3.46,0.76,4.78,1.94
		l0.23,0.21l0.25-0.18c0.4-0.3,0.82-0.59,1.24-0.86l0.4-0.25l-0.34-0.33c-1.75-1.69-4.05-2.68-6.48-2.77L3.64,2.05
		C3.34,2.03,3.02,2.14,2.78,2.38C2.56,2.6,2.44,2.91,2.45,3.22l0.36,9.42c0.09,2.5,1.12,4.84,2.88,6.6l0.27,0.27
		c0.98,0.98,2.15,1.74,3.46,2.23l0.47,0.18l0.03-0.51c0.03-0.51,0.09-1.02,0.16-1.52l0.04-0.28L9.86,19.5
		C8.99,19.12,8.22,18.58,7.55,17.92z"/>
</g>
</svg>
