<?xml version="1.0" encoding="utf-8"?>
<!-- Generator: Adobe Illustrator 28.3.0, SVG Export Plug-In . SVG Version: 6.00 Build 0)  -->
<svg version="1.1" id="Capa_1" xmlns="http://www.w3.org/2000/svg" xmlns:xlink="http://www.w3.org/1999/xlink" x="0px" y="0px"
	 viewBox="0 0 50 50" style="enable-background:new 0 0 50 50;" xml:space="preserve">
<style type="text/css">
	.st0{fill:#464646;}
	
		.st1{fill-rule:evenodd;clip-rule:evenodd;fill:none;stroke:#FF0000;stroke-width:1.5;stroke-linecap:round;stroke-linejoin:round;stroke-miterlimit:10;}
</style>
<g>
	<path class="st0" d="M39.02,4.65h-5.43V2.83c0-0.5-0.4-0.9-0.9-0.9H17.31c-0.5,0-0.9,0.4-0.9,0.9v1.81h-5.43
		c-1.99,0-3.62,1.62-3.62,3.62v36.19c0,1.99,1.62,3.62,3.62,3.62h28.05c1.99,0,3.62-1.62,3.62-3.62V8.26
		C42.64,6.27,41.02,4.65,39.02,4.65z M18.21,3.73h13.58v3.63H18.21L18.21,3.73z M17.31,9.16h15.38c0.5,0,0.9-0.4,0.9-0.9V6.45h3.63
		v36.2H12.78V6.45h3.63v1.81C16.41,8.76,16.81,9.16,17.31,9.16L17.31,9.16z M40.84,44.45c0,1-0.81,1.81-1.81,1.81H10.98
		c-1,0-1.81-0.81-1.81-1.81V8.26c0-1,0.81-1.81,1.81-1.81h0v37.1c0,0.5,0.4,0.9,0.9,0.9h26.24c0.5,0,0.9-0.4,0.9-0.9V6.45h0
		c1,0,1.81,0.81,1.81,1.81L40.84,44.45z"/>
	<path class="st0" d="M14.86,15.85c-0.35,0.35-0.35,0.92,0,1.27l1.28,1.28c0.36,0.36,0.96,0.35,1.31-0.04l3.24-3.62
		c0.33-0.37,0.3-0.94-0.07-1.27c-0.37-0.33-0.94-0.3-1.27,0.07l-2.61,2.91l-0.61-0.61C15.79,15.49,15.21,15.49,14.86,15.85
		L14.86,15.85z"/>
	<path class="st0" d="M23.64,15.04H34.5c0.5,0,0.9-0.4,0.9-0.9c0-0.5-0.4-0.9-0.9-0.9H23.64c-0.5,0-0.9,0.4-0.9,0.9
		C22.74,14.64,23.15,15.04,23.64,15.04z"/>
	<path class="st0" d="M23.64,18.66H34.5c0.5,0,0.9-0.4,0.9-0.9c0-0.5-0.4-0.9-0.9-0.9H23.64c-0.5,0-0.9,0.4-0.9,0.9
		S23.15,18.66,23.64,18.66z"/>
	<path class="st0" d="M20.63,23.42c-0.37-0.33-0.94-0.3-1.27,0.07l-2.61,2.91l-0.61-0.61c-0.35-0.35-0.92-0.35-1.27,0
		c-0.35,0.35-0.35,0.92,0,1.27l1.28,1.28c0.37,0.37,0.96,0.35,1.31-0.04l3.24-3.62C21.03,24.33,21,23.76,20.63,23.42L20.63,23.42z"
		/>
	<path class="st0" d="M23.64,25H34.5c0.5,0,0.9-0.4,0.9-0.9c0-0.5-0.4-0.9-0.9-0.9H23.64c-0.5,0-0.9,0.4-0.9,0.9
		C22.74,24.59,23.15,25,23.64,25z"/>
	<path class="st0" d="M23.64,28.62H34.5c0.5,0,0.9-0.4,0.9-0.9s-0.4-0.9-0.9-0.9H23.64c-0.5,0-0.9,0.4-0.9,0.9
		C22.74,28.21,23.15,28.62,23.64,28.62z"/>
	<path class="st0" d="M20.63,33.38c-0.37-0.33-0.94-0.3-1.27,0.07l-2.61,2.91l-0.61-0.61c-0.35-0.35-0.92-0.35-1.27,0
		c-0.35,0.35-0.35,0.92,0,1.27l1.28,1.28c0.37,0.37,0.96,0.35,1.31-0.04l3.24-3.62C21.03,34.28,21,33.71,20.63,33.38z"/>
	<path class="st0" d="M23.64,34.95H34.5c0.5,0,0.9-0.4,0.9-0.9s-0.4-0.9-0.9-0.9H23.64c-0.5,0-0.9,0.4-0.9,0.9
		S23.15,34.95,23.64,34.95z"/>
	<path class="st0" d="M23.64,38.57H34.5c0.5,0,0.9-0.4,0.9-0.9c0-0.5-0.4-0.9-0.9-0.9H23.64c-0.5,0-0.9,0.4-0.9,0.9
		C22.74,38.16,23.15,38.57,23.64,38.57z"/>
</g>
</svg>
