<?xml version="1.0" encoding="utf-8"?>
<!-- Generator: Adobe Illustrator 28.3.0, SVG Export Plug-In . SVG Version: 6.00 Build 0)  -->
<svg version="1.1" id="Capa_1" xmlns="http://www.w3.org/2000/svg" xmlns:xlink="http://www.w3.org/1999/xlink" x="0px" y="0px"
	 viewBox="0 0 50 50" style="enable-background:new 0 0 50 50;" xml:space="preserve">
<style type="text/css">
	.st0{fill:#464646;}
	
		.st1{fill-rule:evenodd;clip-rule:evenodd;fill:none;stroke:#FF0000;stroke-width:1.5;stroke-linecap:round;stroke-linejoin:round;stroke-miterlimit:10;}
</style>
<g>
	<g>
		<g>
			<g>
				<path class="st0" d="M34.55,26.38c-0.98-0.21-1.81-0.84-2.29-1.73c-0.44-0.82-0.53-1.76-0.28-2.64l-5.28-1.12
					c-0.46-0.1-0.75-0.55-0.65-1.01l1.19-5.59c0.05-0.25,0.21-0.46,0.43-0.57c0.22-0.12,0.49-0.13,0.72-0.03l0.05,0.02
					c0.48,0.2,1.02,0.17,1.48-0.07c0.46-0.24,0.78-0.67,0.89-1.18c0.11-0.51-0.01-1.03-0.33-1.44c-0.32-0.41-0.8-0.65-1.32-0.66
					l-0.05,0c-0.25-0.01-0.49-0.13-0.64-0.32c-0.16-0.2-0.22-0.45-0.16-0.7l1.3-6.13c0.1-0.46,0.55-0.75,1.01-0.65l13.75,2.93
					c2.07,0.44,3.4,2.48,2.96,4.56l-2.93,13.75c-0.1,0.46-0.55,0.75-1.01,0.65l-4.71-1c-0.11,0.89-0.56,1.71-1.27,2.27
					c-0.79,0.63-1.82,0.88-2.81,0.69C34.58,26.39,34.56,26.38,34.55,26.38L34.55,26.38z M27.88,19.4l5.43,1.15
					c0.25,0.05,0.46,0.21,0.57,0.43c0.12,0.22,0.13,0.49,0.03,0.72l-0.24,0.59c-0.21,0.5-0.18,1.07,0.08,1.55
					c0.25,0.46,0.67,0.78,1.17,0.88c0.5,0.1,1.02-0.03,1.42-0.35c0.4-0.32,0.64-0.8,0.65-1.31l0.02-0.7
					c0.01-0.25,0.13-0.49,0.32-0.64c0.2-0.16,0.45-0.22,0.7-0.16l4.86,1.03l2.75-12.93c0.25-1.16-0.49-2.3-1.65-2.55L31.08,4.38
					l-0.94,4.43c0.65,0.21,1.23,0.6,1.67,1.15c0.63,0.8,0.87,1.84,0.66,2.84c-0.21,1-0.85,1.85-1.76,2.33
					c-0.62,0.33-1.31,0.45-1.99,0.38L27.88,19.4z"/>
			</g>
		</g>
	</g>
	<g>
		<g>
			<path class="st0" d="M37.56,33.49c0.47,0,0.85-0.38,0.85-0.85v-3.07c0-0.47-0.38-0.85-0.85-0.85h-5.82
				c-0.25,0-0.49,0.11-0.65,0.3c-0.16,0.19-0.23,0.45-0.18,0.7l0.13,0.69c0.09,0.51-0.04,1.02-0.37,1.42
				c-0.33,0.4-0.81,0.63-1.32,0.64c-0.52,0.01-0.99-0.21-1.33-0.61c-0.35-0.42-0.5-0.96-0.4-1.5l0.12-0.63
				c0.05-0.25-0.02-0.5-0.18-0.7c-0.16-0.19-0.4-0.3-0.65-0.3h-5.55v-3.98c0.68-0.07,1.33-0.33,1.87-0.78
				c0.79-0.66,1.24-1.62,1.24-2.64c0-1.02-0.45-1.99-1.24-2.64c-0.54-0.45-1.19-0.72-1.87-0.78v-5.38c0-0.47-0.38-0.85-0.85-0.85
				H6.44c-2.12,0-3.84,1.72-3.84,3.84v28.13c0,2.12,1.72,3.84,3.84,3.84h28.13c2.12,0,3.84-1.72,3.84-3.84v-2.46
				c0-0.47-0.38-0.85-0.85-0.85c-0.47,0-0.85,0.38-0.85,0.85v2.46c0,1.18-0.96,2.15-2.15,2.15H21.35v-5.47
				c0-0.25-0.11-0.49-0.3-0.65c-0.19-0.16-0.45-0.23-0.7-0.18l-0.05,0.01c-0.51,0.09-1.03-0.04-1.43-0.38
				c-0.4-0.33-0.63-0.82-0.63-1.34c0-0.52,0.23-1.01,0.63-1.34c0.4-0.33,0.92-0.47,1.43-0.38l0.05,0.01c0.25,0.05,0.5-0.02,0.7-0.18
				c0.19-0.16,0.3-0.4,0.3-0.65v-4.82h4.55c-0.07,0.91,0.22,1.82,0.82,2.53c0.66,0.79,1.63,1.23,2.65,1.21
				c1.01-0.01,1.96-0.47,2.61-1.26c0.58-0.7,0.85-1.59,0.77-2.49h3.97v2.22C36.71,33.11,37.09,33.49,37.56,33.49L37.56,33.49z
				 M4.3,15.51c0-1.18,0.96-2.15,2.15-2.15h13.21v5.42c0,0.25,0.11,0.49,0.3,0.65c0.19,0.16,0.45,0.23,0.7,0.18l0.05-0.01
				c0,0,0,0,0,0c0.51-0.09,1.03,0.04,1.43,0.38c0.4,0.33,0.63,0.82,0.63,1.34s-0.23,1.01-0.63,1.34c-0.4,0.33-0.92,0.47-1.43,0.38
				l-0.05-0.01c-0.25-0.05-0.5,0.02-0.7,0.18s-0.3,0.4-0.3,0.65v4.87h-3.64c-0.42-1.44-1.74-2.47-3.3-2.47s-2.89,1.04-3.3,2.47H4.3
				L4.3,15.51z M17.79,35.13c-0.79,0.66-1.24,1.62-1.24,2.64c0,1.02,0.45,1.99,1.24,2.64c0.54,0.45,1.19,0.72,1.87,0.78v4.58H6.44
				c-1.18,0-2.15-0.96-2.15-2.15V30.42h5.83c0.45,0,0.83-0.36,0.85-0.81c0.04-0.93,0.81-1.66,1.74-1.66c0.94,0,1.7,0.73,1.74,1.66
				c0.02,0.45,0.39,0.81,0.85,0.81h4.35v3.93C18.98,34.42,18.32,34.68,17.79,35.13L17.79,35.13z"/>
		</g>
		<g>
			<g>
				<g>
					<path class="st0" d="M37.56,37.71c-0.36,0-0.68-0.23-0.8-0.56c-0.12-0.33-0.02-0.71,0.25-0.93c0.28-0.24,0.69-0.26,1-0.07
						c0.3,0.18,0.45,0.54,0.38,0.89C38.31,37.42,37.96,37.71,37.56,37.71L37.56,37.71z"/>
				</g>
			</g>
		</g>
	</g>
</g>
</svg>
