<?xml version="1.0" encoding="utf-8"?>
<!-- Generator: Adobe Illustrator 28.3.0, SVG Export Plug-In . SVG Version: 6.00 Build 0)  -->
<svg version="1.1" id="Capa_1" xmlns="http://www.w3.org/2000/svg" xmlns:xlink="http://www.w3.org/1999/xlink" x="0px" y="0px"
	 viewBox="0 0 50 50" style="enable-background:new 0 0 50 50;" xml:space="preserve">
<style type="text/css">
	.st0{fill:#464646;}
	
		.st1{fill-rule:evenodd;clip-rule:evenodd;fill:none;stroke:#FF0000;stroke-width:1.5;stroke-linecap:round;stroke-linejoin:round;stroke-miterlimit:10;}
</style>
<g>
	<g>
		<g>
			<path class="st0" d="M45.8,39.85l-7.54-7.54c0,0,0,0,0,0c0,0,0,0,0,0l-2.7-2.7c-0.91-0.91-2.39-0.91-3.3,0l-0.33,0.33l-1.14-1.14
				c2.23-2.67,3.57-6.11,3.57-9.86c0-8.5-6.92-15.42-15.42-15.42S3.52,10.44,3.52,18.94s6.92,15.42,15.42,15.42
				c3.75,0,7.19-1.34,9.86-3.57l1.14,1.14l-0.33,0.33c-0.91,0.91-0.91,2.39,0,3.3l10.24,10.24c0.91,0.91,2.39,0.91,3.3,0l2.64-2.64
				C46.71,42.24,46.71,40.76,45.8,39.85z M18.94,31.55c-6.96,0-12.61-5.66-12.61-12.61S11.98,6.32,18.94,6.32
				s12.61,5.66,12.61,12.61S25.89,31.55,18.94,31.55z M31.92,33.9l1.98-1.98l1.37,1.37l-1.98,1.98L31.92,33.9z M41.5,43.48
				l-6.22-6.22l1.98-1.98l6.22,6.22L41.5,43.48z"/>
		</g>
	</g>
	<g>
		<g>
			<path class="st0" d="M18.94,9.13c-0.77,0-1.4,0.63-1.4,1.4s0.63,1.4,1.4,1.4c3.86,0,7.01,3.14,7.01,7.01c0,0.77,0.63,1.4,1.4,1.4
				c0.77,0,1.4-0.63,1.4-1.4C28.75,13.53,24.35,9.13,18.94,9.13z"/>
		</g>
	</g>
</g>
</svg>
